<svg xmlns="http://www.w3.org/2000/svg" width="50" height="50" viewBox="0 0 50 50" fill="none">
    <div xmlns="" id="in-page-channel-node-id" data-channel-name="in_page_channel_KjHMCh" />
    <path
        d="M25 27.9297C25.809 27.9297 26.4648 27.2739 26.4648 26.4648C26.4648 25.6558 25.809 25 25 25C24.191 25 23.5352 25.6558 23.5352 26.4648C23.5352 27.2739 24.191 27.9297 25 27.9297Z"
        fill="#181010" />
    <path
        d="M25 0C11.2346 0 0 11.2353 0 25C0 38.7657 11.2353 50 25 50C38.7656 50 50 38.7647 50 25C50 11.2346 38.7647 0 25 0ZM25 5.95703C34.5042 5.95703 42.4042 12.9559 43.8176 22.0703H38.7376C35.5167 22.0703 32.4565 20.7778 30.3418 18.5243C27.4512 15.4437 22.5491 15.4427 19.6582 18.5242C17.5435 20.7778 14.4833 22.0703 11.2623 22.0703H6.18242C7.5958 12.9559 15.4958 5.95703 25 5.95703ZM25 30.8594C22.577 30.8594 20.6055 28.8881 20.6055 26.4648C20.6055 24.0416 22.577 22.0703 25 22.0703C27.4232 22.0703 29.3945 24.0416 29.3945 26.4648C29.3945 28.8881 27.4232 30.8594 25 30.8594ZM7.26758 31.9431C8.94434 31.2853 10.1551 30.8594 11.8164 30.8594C17.157 30.8594 21.3104 35.6186 20.506 40.9658H20.5025C20.383 41.7843 20.1479 42.5773 19.8087 43.3237C14.0705 41.6958 9.42686 37.4388 7.26758 31.9431ZM30.1925 43.3233C29.844 42.5572 29.614 41.7643 29.4975 40.9658H29.494C28.5566 34.7349 34.3086 29.5936 40.2708 31.1088C40.8993 31.2686 41.6858 31.5326 42.7323 31.9432C40.5732 37.4384 35.9301 41.6952 30.1925 43.3233Z"
        fill="#181010" />
</svg>