<svg width="2501" height="869" viewBox="0 0 2501 869" fill="none" xmlns="http://www.w3.org/2000/svg">
    <g clip-path="url(#clip0_235_8)">
        <path
            d="M1666.53 0.522461C1666.53 0.522461 1657.79 85.5773 1604.85 138.586C1564.44 178.997 1521.93 182.163 1466.27 190.459C1433.84 195.312 1364.04 203.436 1346.45 187.739C1338.29 180.477 1336.12 115.455 1335.36 92.6681C1334.64 68.8486 1330.68 35.8042 1325.66 30.7099C1323.07 41.2428 1317.08 70.3975 1315.02 77.5572C1312.95 84.7168 1303.63 118.587 1301.94 124.439C1267.69 118.289 1232.62 118.289 1198.37 124.439C1196.78 118.691 1187.45 84.9233 1185.39 77.7637C1183.32 70.6041 1177.33 41.4493 1174.75 30.9164C1169.76 35.9075 1165.77 68.9519 1165.05 92.8746C1164.32 115.834 1162.16 180.683 1153.96 187.946C1136.37 203.642 1066.6 195.519 1034.18 190.665C978.552 182.163 936.042 178.997 895.769 138.586C842.657 85.5773 833.811 0.522461 833.811 0.522461H0.817383C0.817383 0.522461 240.114 78.7963 336.493 236.618C393.495 329.934 385.165 437.947 370.639 493.847C585.978 482.42 763.11 482.42 940.517 546.34C1178.81 632.152 1226.9 808.595 1250.31 868.522C1273.61 808.595 1321.73 632.152 1560.1 546.34C1737.51 482.454 1914.64 482.351 2129.98 493.847C2115.49 437.947 2107.16 329.934 2164.16 236.618C2260.33 78.7963 2499.8 0.522461 2499.8 0.522461H1666.53Z"
            fill="#0f2e45" />
    </g>
    <defs>
        <clipPath id="clip0_235_8">
            <rect width="2500" height="868" fill="white" transform="translate(0.307861 0.522461)" />
        </clipPath>
    </defs>
</svg>